<svg width="33" height="44" viewBox="0 0 33 44" fill="none" xmlns="http://www.w3.org/2000/svg">
<path d="M16.2004 33.1276C15.6721 33.1276 15.3309 33.1744 15.1289 33.2207V40.0683C15.3313 40.1151 15.6574 40.1151 15.952 40.1151C18.0943 40.1302 19.4921 38.9507 19.4921 36.4505C19.5073 34.2764 18.2343 33.1276 16.2004 33.1276Z" fill="#019EBD"/>
<path d="M7.05263 33.0969C6.57157 33.0969 6.24549 33.1432 6.07422 33.1896V36.2799C6.2764 36.3263 6.525 36.3422 6.86531 36.3422C8.12403 36.3422 8.90002 35.7053 8.90002 34.634C8.9001 33.6715 8.23204 33.0969 7.05263 33.0969Z" fill="#019EBD"/>
<path d="M32.796 10.544C32.7934 10.3422 32.7294 10.1429 32.5908 9.98538L24.1069 0.29509C24.1052 0.292374 24.102 0.291496 24.1002 0.289019C24.0496 0.232542 23.9916 0.185969 23.9292 0.144909C23.9106 0.132927 23.8912 0.122142 23.8718 0.111198C23.8179 0.0819607 23.7614 0.057676 23.7017 0.0399419C23.6865 0.0353086 23.6713 0.0287581 23.6553 0.0246042C23.5914 0.00910674 23.5248 0 23.4582 0H2.6083C1.65705 0 0.882812 0.774313 0.882812 1.72557V42.2745C0.882812 43.2262 1.65705 44.0001 2.6083 44.0001H31.0789C32.0301 44.0001 32.8044 43.2262 32.8044 42.2745V10.6407C32.8043 10.6082 32.7993 10.5764 32.796 10.544ZM10.282 37.0559C9.47486 37.8166 8.27917 38.1588 6.88144 38.1588C6.57133 38.1588 6.29102 38.1428 6.07445 38.1124V41.8541H3.72987V31.5281C4.45929 31.4043 5.48467 31.3107 6.92897 31.3107C8.38821 31.3107 9.42869 31.5904 10.1272 32.149C10.7953 32.6772 11.2444 33.5468 11.2444 34.5713C11.2444 35.5966 10.9036 36.4661 10.282 37.0559ZM20.2668 40.6122C19.1656 41.528 17.4886 41.9628 15.4395 41.9628C14.2126 41.9628 13.3436 41.8853 12.7525 41.8078V31.5281C13.6222 31.3891 14.7562 31.3107 15.9515 31.3107C17.938 31.3107 19.2271 31.668 20.2369 32.4287C21.3241 33.2363 22.0074 34.5249 22.0074 36.3726C22.0065 38.3761 21.2769 39.7579 20.2668 40.6122ZM29.9582 33.3295H25.936V35.7206H29.6937V37.6466H25.936V41.8541H23.561V31.3891H29.9582V33.3295ZM2.6083 29.2975V1.72557H22.5954V10.5539C22.5954 11.0301 22.9814 11.4167 23.4582 11.4167H31.0789L31.0797 29.2975H2.6083Z" fill="#019EBD"/>
<path d="M25.6943 18.5438C25.6437 18.5391 24.4279 18.4281 22.5618 18.4281C21.9771 18.4281 21.3882 18.4395 20.8068 18.4614C17.1215 15.6959 14.103 12.9281 12.4871 11.377C12.5166 11.2062 12.5368 11.0712 12.5463 10.9675C12.7594 8.71762 12.5225 7.19871 11.8444 6.45292C11.4004 5.96554 10.7483 5.80338 10.0684 5.98911C9.6461 6.09975 8.86443 6.50939 8.61416 7.3433C8.33784 8.26484 8.78199 9.38329 9.94885 10.6803C9.96739 10.6999 10.3634 11.1148 11.0829 11.8179C10.6152 14.0477 9.39111 18.8595 8.79717 21.1701C7.40216 21.9155 6.23985 22.8134 5.34004 23.8434L5.28109 23.9109L5.24299 23.9918C5.15032 24.1865 4.70737 25.197 5.03992 26.0088C5.19178 26.3778 5.47633 26.6474 5.86288 26.789L5.96649 26.8169C5.96649 26.8169 6.05996 26.8371 6.22428 26.8371C6.94403 26.8371 8.72064 26.4588 9.67358 22.9471L9.90444 22.0574C13.2307 20.4406 17.3886 19.9191 20.4024 19.7738C21.9526 20.9234 23.4952 21.9794 24.9899 22.9146L25.0387 22.9429C25.1112 22.98 25.7666 23.3036 26.5342 23.3043C27.6312 23.3043 28.4324 22.6311 28.7307 21.458L28.7458 21.3777C28.8292 20.7073 28.6607 20.103 28.2588 19.6305C27.4122 18.6353 25.8359 18.5486 25.6943 18.5438ZM6.25112 25.5423C6.24441 25.5343 6.24121 25.5268 6.23786 25.5184C6.16628 25.3461 6.25216 24.9281 6.37853 24.6219C6.9211 24.0153 7.57239 23.4584 8.32394 22.9571C7.59205 25.3262 6.52768 25.5311 6.25112 25.5423ZM10.8981 9.80132C9.77415 8.55018 9.791 7.92989 9.85148 7.72107C9.95069 7.37206 10.3985 7.24017 10.4024 7.23897C10.6279 7.17762 10.7649 7.18968 10.8868 7.32349C11.1624 7.62633 11.3992 8.54028 11.3057 10.2167C11.0403 9.95006 10.8981 9.80132 10.8981 9.80132ZM10.3174 20.4557L10.3368 20.3815L10.3342 20.3824C10.897 18.1782 11.7086 14.9506 12.1753 12.8774L12.1921 12.8935L12.1938 12.8836C13.7036 14.3053 16.0187 16.3849 18.7905 18.5479L18.7594 18.5491L18.8052 18.5837C16.194 18.8043 13.0752 19.3191 10.3174 20.4557ZM27.4662 21.1788C27.2673 21.9094 26.8848 22.0092 26.5343 22.0092C26.1274 22.0092 25.7356 21.8399 25.6463 21.799C24.6285 21.161 23.5872 20.4659 22.5365 19.7222C22.5449 19.7222 22.5525 19.7222 22.5618 19.7222C24.3631 19.7222 25.5628 19.8315 25.61 19.8349C25.9108 19.8461 26.8629 19.9867 27.2732 20.469C27.434 20.6581 27.4956 20.8841 27.4662 21.1788Z" fill="#019EBD"/>
</svg>
