<svg width="26" height="30" viewBox="0 0 26 30" fill="none" xmlns="http://www.w3.org/2000/svg">
<path d="M9.08679 14.9999C9.08679 17.0517 7.42341 18.7151 5.37152 18.7151C3.31964 18.7151 1.65625 17.0517 1.65625 14.9999C1.65625 12.948 3.31964 11.2846 5.37152 11.2846C7.42341 11.2846 9.08679 12.948 9.08679 14.9999Z" stroke="#019EBD" stroke-width="2.5"/>
<path d="M16.5204 6.82635L9.08984 12.0277" stroke="#019EBD" stroke-width="2.5" stroke-linecap="round"/>
<path d="M16.5204 23.1735L9.08984 17.9721" stroke="#019EBD" stroke-width="2.5" stroke-linecap="round"/>
<path d="M23.9462 24.6597C23.9462 26.7116 22.2828 28.375 20.2309 28.375C18.179 28.375 16.5156 26.7116 16.5156 24.6597C16.5156 22.6079 18.179 20.9445 20.2309 20.9445C22.2828 20.9445 23.9462 22.6079 23.9462 24.6597Z" stroke="#019EBD" stroke-width="2.5"/>
<path d="M23.9462 5.3403C23.9462 7.39219 22.2828 9.05557 20.2309 9.05557C18.179 9.05557 16.5156 7.39219 16.5156 5.3403C16.5156 3.28842 18.179 1.62503 20.2309 1.62503C22.2828 1.62503 23.9462 3.28842 23.9462 5.3403Z" stroke="#019EBD" stroke-width="2.5"/>
</svg>
