<svg xmlns="http://www.w3.org/2000/svg" width="48" height="48" viewBox="0 0 48 48">
  <g id="Instagram-icon" transform="translate(-1045.877 -13913.248)">
    <path id="Icon_awesome-instagram" data-name="Icon awesome-instagram" d="M10.963,7.579A5.622,5.622,0,1,0,16.584,13.2,5.613,5.613,0,0,0,10.963,7.579Zm0,9.276A3.655,3.655,0,1,1,14.617,13.2a3.661,3.661,0,0,1-3.655,3.655Zm7.163-9.506a1.311,1.311,0,1,1-1.311-1.311A1.308,1.308,0,0,1,18.125,7.349ZM21.849,8.68a6.489,6.489,0,0,0-1.771-4.594,6.532,6.532,0,0,0-4.594-1.771c-1.81-.1-7.236-.1-9.046,0A6.522,6.522,0,0,0,1.843,4.081,6.51,6.51,0,0,0,.072,8.675c-.1,1.81-.1,7.236,0,9.046a6.489,6.489,0,0,0,1.771,4.594,6.54,6.54,0,0,0,4.594,1.771c1.81.1,7.236.1,9.046,0a6.489,6.489,0,0,0,4.594-1.771,6.532,6.532,0,0,0,1.771-4.594c.1-1.81.1-7.231,0-9.042ZM19.51,19.664a3.7,3.7,0,0,1-2.084,2.084c-1.443.572-4.868.44-6.463.44s-5.025.127-6.463-.44a3.7,3.7,0,0,1-2.084-2.084c-.572-1.443-.44-4.868-.44-6.463s-.127-5.025.44-6.463A3.7,3.7,0,0,1,4.5,4.653c1.443-.572,4.868-.44,6.463-.44s5.025-.127,6.463.44A3.7,3.7,0,0,1,19.51,6.738c.572,1.443.44,4.868.44,6.463S20.082,18.225,19.51,19.664Z" transform="translate(1058.916 13924.047)" fill="#fff"></path>
    <g id="Ellipse_35" data-name="Ellipse 35" transform="translate(1045.877 13913.248)" fill="none" stroke="#fff" stroke-width="1">
      <circle cx="24" cy="24" r="24" stroke="none"></circle>
      <circle cx="24" cy="24" r="23.5" fill="none"></circle>
    </g>
  </g>
</svg>