<svg xmlns="http://www.w3.org/2000/svg" width="48" height="48" viewBox="0 0 48 48">
  <g id="Linkedin-icon" transform="translate(-1141.877 -13913.248)">
    <path id="Icon_awesome-linkedin" data-name="Icon awesome-linkedin" d="M17.471,2.25H1.34A1.35,1.35,0,0,0,0,3.606v16.1a1.35,1.35,0,0,0,1.34,1.356H17.471a1.353,1.353,0,0,0,1.344-1.356V3.606A1.353,1.353,0,0,0,17.471,2.25ZM5.686,18.377H2.9V9.4H5.691v8.979ZM4.292,8.172A1.617,1.617,0,1,1,5.909,6.555,1.618,1.618,0,0,1,4.292,8.172ZM16.139,18.377H13.351V14.009c0-1.042-.021-2.381-1.449-2.381-1.453,0-1.676,1.134-1.676,2.306v4.443H7.438V9.4h2.675v1.226h.038a2.937,2.937,0,0,1,2.642-1.449c2.822,0,3.347,1.86,3.347,4.279Z" transform="translate(1156.471 13925.591)" fill="#fff"></path>
    <g id="Ellipse_37" data-name="Ellipse 37" transform="translate(1141.877 13913.248)" fill="none" stroke="#fff" stroke-width="1">
      <circle cx="24" cy="24" r="24" stroke="none"></circle>
      <circle cx="24" cy="24" r="23.5" fill="none"></circle>
    </g>
  </g>
</svg>