<svg xmlns="http://www.w3.org/2000/svg" width="28.099" height="21.85" viewBox="0 0 28.099 21.85">
  <path id="Icon_awesome-home" data-name="Icon awesome-home" d="M13.676,7.922,4.682,15.329v7.994a.78.78,0,0,0,.78.78l5.466-.014a.78.78,0,0,0,.777-.78V18.641a.78.78,0,0,1,.78-.78h3.122a.78.78,0,0,1,.78.78v4.665a.78.78,0,0,0,.78.783l5.464.015a.78.78,0,0,0,.78-.78v-8l-8.991-7.4A.6.6,0,0,0,13.676,7.922Zm14.206,5.034L23.8,9.6V2.839a.585.585,0,0,0-.585-.585H20.487a.585.585,0,0,0-.585.585V6.381L15.534,2.788a2.341,2.341,0,0,0-2.976,0L.211,12.957a.585.585,0,0,0-.078.824l1.244,1.512a.585.585,0,0,0,.825.08l11.474-9.45a.6.6,0,0,1,.746,0L25.9,15.373a.585.585,0,0,0,.824-.078l1.244-1.512a.585.585,0,0,0-.083-.826Z" transform="translate(0.001 -2.254)" fill="#fff"></path>
</svg>