<svg width="23" height="26" viewBox="0 0 23 26" fill="none" xmlns="http://www.w3.org/2000/svg">
<path fill-rule="evenodd" clip-rule="evenodd" d="M17.9117 0.149414C15.6002 0.149414 13.7262 2.05216 13.7262 4.39933C13.7262 4.65552 13.7485 4.90639 13.7914 5.15009L7.69892 9.48038C7.66796 9.50237 7.63867 9.52588 7.61105 9.55074C6.90048 8.98594 6.00555 8.64925 5.03318 8.64925C2.72157 8.64925 0.847656 10.552 0.847656 12.8992C0.847656 15.2463 2.72157 17.1491 5.03318 17.1491C6.00555 17.1491 6.90048 16.8124 7.61105 16.2476C7.63867 16.2724 7.66796 16.296 7.69892 16.3179L13.7914 20.6483C13.7485 20.8919 13.7262 21.1428 13.7262 21.399C13.7262 23.7461 15.6002 25.6489 17.9117 25.6489C20.2233 25.6489 22.0972 23.7461 22.0972 21.399C22.0972 19.0519 20.2233 17.1491 17.9117 17.1491C16.5559 17.1491 15.3506 17.8037 14.5857 18.8186L8.81697 14.7183C9.07458 14.1668 9.21871 13.5501 9.21871 12.8992C9.21871 12.2482 9.07458 11.6315 8.81697 11.0801L14.5857 6.97975C15.3506 7.99466 16.5559 8.64925 17.9117 8.64925C20.2233 8.64925 22.0972 6.7465 22.0972 4.39933C22.0972 2.05216 20.2233 0.149414 17.9117 0.149414ZM15.658 4.39933C15.658 3.13547 16.667 2.11091 17.9117 2.11091C19.1564 2.11091 20.1655 3.13547 20.1655 4.39933C20.1655 5.66319 19.1564 6.68775 17.9117 6.68775C16.667 6.68775 15.658 5.66319 15.658 4.39933ZM5.03318 10.6108C3.78847 10.6108 2.77944 11.6353 2.77944 12.8992C2.77944 14.163 3.78847 15.1876 5.03318 15.1876C6.27789 15.1876 7.28693 14.163 7.28693 12.8992C7.28693 11.6353 6.27789 10.6108 5.03318 10.6108ZM17.9117 19.1106C16.667 19.1106 15.658 20.1351 15.658 21.399C15.658 22.6629 16.667 23.6874 17.9117 23.6874C19.1564 23.6874 20.1655 22.6629 20.1655 21.399C20.1655 20.1351 19.1564 19.1106 17.9117 19.1106Z" fill="white"/>
</svg>
