<svg xmlns="http://www.w3.org/2000/svg" width="48" height="48" viewBox="0 0 48 48">
  <g id="Twitter-icon" transform="translate(-1546 -286)">
    <path id="Icon_awesome-twitter" data-name="Icon awesome-twitter" d="M22.354,7.391c.016.221.016.443.016.664A14.429,14.429,0,0,1,7.841,22.583,14.43,14.43,0,0,1,0,20.291a10.562,10.562,0,0,0,1.233.063,10.227,10.227,0,0,0,6.339-2.182A5.115,5.115,0,0,1,2.8,14.631a6.44,6.44,0,0,0,.964.079,5.4,5.4,0,0,0,1.344-.174A5.107,5.107,0,0,1,1.012,9.525V9.462a5.143,5.143,0,0,0,2.308.648A5.114,5.114,0,0,1,1.739,3.28,14.515,14.515,0,0,0,12.268,8.624a5.764,5.764,0,0,1-.126-1.17A5.111,5.111,0,0,1,20.979,3.96,10.053,10.053,0,0,0,24.22,2.727a5.093,5.093,0,0,1-2.245,2.814,10.237,10.237,0,0,0,2.94-.79,10.977,10.977,0,0,1-2.561,2.64Z" transform="translate(1558.199 298.067)" fill="#fff"></path>
    <g id="Ellipse_32" data-name="Ellipse 32" transform="translate(1546 286)" fill="none" stroke="#fff" stroke-width="1">
      <circle cx="24" cy="24" r="24" stroke="none"></circle>
      <circle cx="24" cy="24" r="23.5" fill="none"></circle>
    </g>
  </g>
</svg>