<svg width="27" height="29" viewBox="0 0 27 29" fill="none" xmlns="http://www.w3.org/2000/svg">
<path d="M11.3684 16.1719V27.4219H0V16.1719H11.3684ZM8.52632 18.9844H2.84211V24.6094H8.52632V18.9844ZM12.7895 0L20.6053 12.6562H4.97368L12.7895 0ZM12.7895 5.42813L10.0611 9.84375H15.5179L12.7895 5.42813ZM20.6053 15.4688C24.1579 15.4688 27 18.2812 27 21.7969C27 25.3125 24.1579 28.125 20.6053 28.125C17.0526 28.125 14.2105 25.3125 14.2105 21.7969C14.2105 18.2812 17.0526 15.4688 20.6053 15.4688ZM20.6053 18.2812C19.663 18.2812 18.7594 18.6516 18.0932 19.311C17.4269 19.9703 17.0526 20.8645 17.0526 21.7969C17.0526 22.7293 17.4269 23.6235 18.0932 24.2828C18.7594 24.9421 19.663 25.3125 20.6053 25.3125C21.5475 25.3125 22.4511 24.9421 23.1174 24.2828C23.7836 23.6235 24.1579 22.7293 24.1579 21.7969C24.1579 20.8645 23.7836 19.9703 23.1174 19.311C22.4511 18.6516 21.5475 18.2812 20.6053 18.2812Z" fill="black"/>
</svg>
