<svg width="31" height="19" viewBox="0 0 31 19" fill="none" xmlns="http://www.w3.org/2000/svg">
<path fill-rule="evenodd" clip-rule="evenodd" d="M0.710938 1.58333C0.710938 0.70889 1.45714 0 2.3776 0L29.0443 0C29.9648 0 30.7109 0.70889 30.7109 1.58333C30.7109 2.45778 29.9648 3.16667 29.0443 3.16667L2.3776 3.16667C1.45714 3.16667 0.710938 2.45778 0.710938 1.58333ZM5.71094 9.5C5.71094 8.62552 6.45714 7.91667 7.3776 7.91667L24.0443 7.91667C24.9648 7.91667 25.7109 8.62552 25.7109 9.5C25.7109 10.3745 24.9648 11.0833 24.0443 11.0833L7.3776 11.0833C6.45714 11.0833 5.71094 10.3745 5.71094 9.5ZM10.7109 17.4167C10.7109 16.5422 11.4571 15.8333 12.3776 15.8333H19.0443C19.9648 15.8333 20.7109 16.5422 20.7109 17.4167C20.7109 18.2911 19.9648 19 19.0443 19L12.3776 19C11.4571 19 10.7109 18.2911 10.7109 17.4167Z" fill="#1F1F1F"/>
</svg>
