<svg width="29" height="28" viewBox="0 0 29 28" fill="none" xmlns="http://www.w3.org/2000/svg">
<path d="M9.40616 21.35L10.7213 15.904L6.43279 12.292L12.0793 11.774L14.2951 6.72L16.5108 11.83L22.1574 12.292L17.8689 15.904L19.184 21.35L14.2951 18.466L9.40616 21.35ZM14.2951 0C16.1723 0 18.0312 0.362121 19.7656 1.06569C21.4999 1.76925 23.0758 2.80048 24.4032 4.1005C25.7307 5.40053 26.7836 6.94387 27.502 8.64243C28.2204 10.341 28.5902 12.1615 28.5902 14C28.5902 17.713 27.0841 21.274 24.4032 23.8995C21.7224 26.525 18.0864 28 14.2951 28C12.4178 28 10.5589 27.6379 8.82459 26.9343C7.09023 26.2307 5.51435 25.1995 4.18693 23.8995C1.50608 21.274 0 17.713 0 14C0 10.287 1.50608 6.72601 4.18693 4.1005C6.86778 1.475 10.5038 0 14.2951 0ZM14.2951 2.8C11.262 2.8 8.35324 3.98 6.20856 6.0804C4.06388 8.18081 2.85902 11.0296 2.85902 14C2.85902 16.9704 4.06388 19.8192 6.20856 21.9196C8.35324 24.02 11.262 25.2 14.2951 25.2C17.3281 25.2 20.2369 24.02 22.3816 21.9196C24.5263 19.8192 25.7311 16.9704 25.7311 14C25.7311 11.0296 24.5263 8.18081 22.3816 6.0804C20.2369 3.98 17.3281 2.8 14.2951 2.8Z" fill="black"/>
</svg>
