<svg xmlns="http://www.w3.org/2000/svg" width="48" height="48" viewBox="0 0 48 48">
  <g id="Youtube-icon" transform="translate(-1112.877 -13913.248)">
    <path id="Icon_awesome-youtube" data-name="Icon awesome-youtube" d="M24.666,7.154a3.031,3.031,0,0,0-2.132-2.146C20.652,4.5,13.11,4.5,13.11,4.5s-7.542,0-9.423.507A3.031,3.031,0,0,0,1.554,7.154,31.793,31.793,0,0,0,1.05,13a31.793,31.793,0,0,0,.5,5.843,2.986,2.986,0,0,0,2.132,2.112c1.881.507,9.423.507,9.423.507s7.542,0,9.423-.507a2.986,2.986,0,0,0,2.132-2.112A31.793,31.793,0,0,0,25.17,13a31.793,31.793,0,0,0-.5-5.843Zm-14.023,9.43V9.41L16.947,13l-6.3,3.586Z" transform="translate(1123.767 13924.269)" fill="#fff"></path>
    <g id="Ellipse_36" data-name="Ellipse 36" transform="translate(1112.877 13913.248)" fill="none" stroke="#fff" stroke-width="1">
      <circle cx="24" cy="24" r="24" stroke="none"></circle>
      <circle cx="24" cy="24" r="23.5" fill="none"></circle>
    </g>
  </g>
</svg>