<svg width="29" height="28" viewBox="0 0 29 28" fill="none" xmlns="http://www.w3.org/2000/svg">
<path d="M23.6674 21.0627H20.4583C20.1391 21.0627 19.833 20.9476 19.6074 20.7425C19.3816 20.5376 19.2549 20.2595 19.2549 19.9696C19.2549 19.6798 19.3816 19.4017 19.6074 19.1967C19.833 18.9917 20.1391 18.8765 20.4583 18.8765H23.6674C24.1994 18.8765 24.7096 18.6846 25.0857 18.343C25.4618 18.0013 25.6732 17.5379 25.6732 17.0547V11.2248C25.6732 10.7417 25.4618 10.2783 25.0857 9.93661C24.7096 9.59495 24.1994 9.403 23.6674 9.403H4.41257C3.88063 9.403 3.37047 9.59495 2.99432 9.93661C2.61818 10.2783 2.40686 10.7417 2.40686 11.2248V17.0547C2.40686 17.5379 2.61818 18.0013 2.99432 18.343C3.37047 18.6846 3.88063 18.8765 4.41257 18.8765H7.62172C7.94088 18.8765 8.24699 18.9917 8.47267 19.1967C8.69835 19.4017 8.82515 19.6798 8.82515 19.9696C8.82515 20.2595 8.69835 20.5376 8.47267 20.7425C8.24699 20.9476 7.94088 21.0627 7.62172 21.0627H4.41257C3.24228 21.0627 2.11993 20.6405 1.29242 19.8888C0.464893 19.1371 0 18.1176 0 17.0547V11.2248C0 10.1618 0.464893 9.14237 1.29242 8.39073C2.11993 7.63907 3.24228 7.2168 4.41257 7.2168H23.6674C24.8377 7.2168 25.96 7.63907 26.7875 8.39073C27.6152 9.14237 28.08 10.1618 28.08 11.2248V17.0547C28.08 18.1176 27.6152 19.1371 26.7875 19.8888C25.96 20.6405 24.8377 21.0627 23.6674 21.0627Z" fill="white"/>
<path d="M20.4107 9.34676C20.0954 9.34274 19.7941 9.21904 19.5711 9.00201C19.3482 8.78497 19.2211 8.49177 19.217 8.18486V3.14997H8.87174V8.18486C8.87174 8.49301 8.74598 8.78855 8.52212 9.00644C8.29827 9.22434 7.99464 9.34676 7.67806 9.34676C7.36148 9.34676 7.05785 9.22434 6.834 9.00644C6.61014 8.78855 6.48438 8.49301 6.48438 8.18486V2.76267C6.48438 2.24908 6.69399 1.75653 7.06708 1.39336C7.44018 1.0302 7.94621 0.826172 8.47385 0.826172H19.6149C20.1425 0.826172 20.6486 1.0302 21.0217 1.39336C21.3948 1.75653 21.6044 2.24908 21.6044 2.76267V8.18486C21.6002 8.49177 21.4732 8.78497 21.2503 9.00201C21.0273 9.21904 20.726 9.34274 20.4107 9.34676Z" fill="white"/>
<path d="M19.6149 27.4532H8.47385C7.94621 27.4532 7.44018 27.2761 7.06708 26.9607C6.69399 26.6454 6.48438 26.2175 6.48438 25.7715V16.3541C6.48438 15.9081 6.69399 15.4802 7.06708 15.1649C7.44018 14.8495 7.94621 14.6724 8.47385 14.6724H19.6149C20.1425 14.6724 20.6486 14.8495 21.0217 15.1649C21.3948 15.4802 21.6044 15.9081 21.6044 16.3541V25.7715C21.6044 26.2175 21.3948 26.6454 21.0217 26.9607C20.6486 27.2761 20.1425 27.4532 19.6149 27.4532ZM8.87174 25.4352H19.217V16.6904H8.87174V25.4352Z" fill="white"/>
</svg>
