<svg width="25" height="31" viewBox="0 0 25 31" fill="none" xmlns="http://www.w3.org/2000/svg">
<path fill-rule="evenodd" clip-rule="evenodd" d="M20.0758 0.793457C17.3562 0.793457 15.1515 3.03203 15.1515 5.79346C15.1515 6.09486 15.1777 6.39001 15.2282 6.67672L8.06047 11.7713C8.02404 11.7971 7.98958 11.8248 7.95709 11.8541C7.12111 11.1896 6.06823 10.7935 4.92424 10.7935C2.20465 10.7935 0 13.0321 0 15.7935C0 18.5548 2.20465 20.7935 4.92424 20.7935C6.06823 20.7935 7.12111 20.3973 7.95709 19.7328C7.98958 19.7621 8.02404 19.7898 8.06047 19.8156L15.2282 24.9102C15.1777 25.1968 15.1515 25.4921 15.1515 25.7935C15.1515 28.5548 17.3562 30.7935 20.0758 30.7935C22.7953 30.7935 25 28.5548 25 25.7935C25 23.0321 22.7953 20.7935 20.0758 20.7935C18.4806 20.7935 17.0626 21.5636 16.1627 22.7576L9.37585 17.9336C9.67892 17.2848 9.84848 16.5593 9.84848 15.7935C9.84848 15.0276 9.67892 14.3021 9.37585 13.6533L16.1627 8.8293C17.0626 10.0233 18.4806 10.7935 20.0758 10.7935C22.7953 10.7935 25 8.55489 25 5.79346C25 3.03203 22.7953 0.793457 20.0758 0.793457ZM17.4242 5.79346C17.4242 4.30653 18.6114 3.10115 20.0758 3.10115C21.5402 3.10115 22.7273 4.30653 22.7273 5.79346C22.7273 7.28038 21.5402 8.48576 20.0758 8.48576C18.6114 8.48576 17.4242 7.28038 17.4242 5.79346ZM4.92424 13.1011C3.45985 13.1011 2.27273 14.3065 2.27273 15.7935C2.27273 17.2804 3.45985 18.4858 4.92424 18.4858C6.38864 18.4858 7.57576 17.2804 7.57576 15.7935C7.57576 14.3065 6.38864 13.1011 4.92424 13.1011ZM20.0758 23.1012C18.6114 23.1012 17.4242 24.3065 17.4242 25.7935C17.4242 27.2804 18.6114 28.4858 20.0758 28.4858C21.5402 28.4858 22.7273 27.2804 22.7273 25.7935C22.7273 24.3065 21.5402 23.1012 20.0758 23.1012Z" fill="white"/>
</svg>
