<svg width="75" height="45" viewBox="0 0 75 62" fill="none" xmlns="http://www.w3.org/2000/svg">
<path fill-rule="evenodd" clip-rule="evenodd" d="M24.9192 8.85714V0C16.5706 1.99486 10.3303 6.50318 6.19817 13.5251C2.06604 20.547 0 30.0823 0 42.1313V62H28.0815V35.4286H16.0647V32.6757C16.0647 26.2123 16.8025 21.0058 18.2783 17.056C19.754 13.1062 21.9677 10.3732 24.9192 8.85714ZM71.7217 8.85714V0C63.3731 1.99486 57.1328 6.50318 53.0007 13.5251C48.8686 20.547 46.8025 30.0823 46.8025 42.1313V62H74.884V35.4286H62.8672V32.6757C62.8672 26.2123 63.605 21.0058 65.0808 17.056C66.5566 13.1062 68.7702 10.3732 71.7217 8.85714Z" fill="#019EBD"/>
</svg>
