<svg width="96" height="96" viewBox="0 0 96 96" fill="none" xmlns="http://www.w3.org/2000/svg">
<circle cx="48" cy="48" r="47.5" stroke="#DD3A76" stroke-opacity="0.5"/>
<path fill-rule="evenodd" clip-rule="evenodd" d="M48.5947 57.7186C53.6348 57.7186 57.7206 53.6328 57.7206 48.5927C57.7206 43.5526 53.6348 39.4668 48.5947 39.4668C43.5546 39.4668 39.4688 43.5526 39.4688 48.5927C39.4688 53.6328 43.5546 57.7186 48.5947 57.7186ZM48.5947 54.6767C51.9547 54.6767 54.6786 51.9527 54.6786 48.5927C54.6786 45.2326 51.9547 42.5088 48.5947 42.5088C45.2346 42.5088 42.5107 45.2326 42.5107 48.5927C42.5107 51.9527 45.2346 54.6767 48.5947 54.6767Z" fill="#DD3A76"/>
<path d="M57.7179 37.8076C56.8014 37.8076 56.0586 38.5505 56.0586 39.4669C56.0586 40.3833 56.8014 41.1261 57.7179 41.1261C58.6343 41.1261 59.3771 40.3833 59.3771 39.4669C59.3771 38.5505 58.6343 37.8076 57.7179 37.8076Z" fill="#DD3A76"/>
<path fill-rule="evenodd" clip-rule="evenodd" d="M32.9864 36.9417C32 38.8777 32 41.4121 32 46.4808V50.7044C32 55.7731 32 58.3076 32.9864 60.2435C33.8541 61.9465 35.2387 63.331 36.9417 64.1987C38.8777 65.1852 41.4121 65.1852 46.4808 65.1852H50.7044C55.7731 65.1852 58.3076 65.1852 60.2435 64.1987C61.9465 63.331 63.331 61.9465 64.1987 60.2435C65.1852 58.3076 65.1852 55.7731 65.1852 50.7044V46.4808C65.1852 41.4121 65.1852 38.8777 64.1987 36.9417C63.331 35.2387 61.9465 33.8541 60.2435 32.9864C58.3076 32 55.7731 32 50.7044 32H46.4808C41.4121 32 38.8777 32 36.9417 32.9864C35.2387 33.8541 33.8541 35.2387 32.9864 36.9417ZM50.7044 35.0168H46.4808C43.8966 35.0168 42.14 35.0192 40.7821 35.1301C39.4595 35.2382 38.7831 35.434 38.3113 35.6745C37.176 36.2529 36.2529 37.176 35.6745 38.3113C35.434 38.7831 35.2382 39.4595 35.1301 40.7821C35.0192 42.14 35.0168 43.8966 35.0168 46.4808V50.7044C35.0168 53.2886 35.0192 55.0452 35.1301 56.403C35.2382 57.7258 35.434 58.4021 35.6745 58.874C36.2529 60.0092 37.176 60.9322 38.3113 61.5107C38.7831 61.7511 39.4595 61.9471 40.7821 62.0551C42.14 62.1659 43.8966 62.1684 46.4808 62.1684H50.7044C53.2886 62.1684 55.0452 62.1659 56.403 62.0551C57.7258 61.9471 58.4021 61.7511 58.874 61.5107C60.0092 60.9322 60.9322 60.0092 61.5107 58.874C61.7511 58.4021 61.9471 57.7258 62.0551 56.403C62.1659 55.0452 62.1684 53.2886 62.1684 50.7044V46.4808C62.1684 43.8966 62.1659 42.14 62.0551 40.7821C61.9471 39.4595 61.7511 38.7831 61.5107 38.3113C60.9322 37.176 60.0092 36.2529 58.874 35.6745C58.4021 35.434 57.7258 35.2382 56.403 35.1301C55.0452 35.0192 53.2886 35.0168 50.7044 35.0168Z" fill="#DD3A76"/>
</svg>
