<svg width="96" height="96" viewBox="0 0 96 96" fill="none" xmlns="http://www.w3.org/2000/svg">
<circle cx="48" cy="48" r="47.5" stroke="#0077B5" stroke-opacity="0.5"/>
<path fill-rule="evenodd" clip-rule="evenodd" d="M39.6673 63.0982V41.3157H32.428V63.0981H39.6673V63.0982ZM36.0484 38.3427C38.5721 38.3427 40.1441 36.6687 40.1441 34.5784C40.0964 32.4417 38.5721 30.8149 36.0957 30.8149C33.6189 30.815 32 32.4418 32 34.5785C32 36.6688 33.5712 38.3428 36.0007 38.3428L36.0484 38.3427ZM43.6739 63.0982C43.6739 63.0982 43.7689 43.3595 43.6739 41.3157H50.9143V44.4747H50.8663C51.8183 42.9882 53.5335 40.8042 57.4388 40.8042C62.2032 40.8042 65.7744 43.9175 65.7744 50.6083V63.0983H58.5351V51.4452C58.5351 48.5172 57.4877 46.5191 54.8671 46.5191C52.8674 46.5191 51.6758 47.8661 51.1524 49.1682C50.9609 49.6317 50.9143 50.2826 50.9143 50.9337V63.0982H43.6739Z" fill="#0077B5"/>
</svg>
