<svg width="39" height="38" viewBox="0 0 39 38" fill="none" xmlns="http://www.w3.org/2000/svg">
<path d="M15.8773 32.6982L15.8771 32.698L15.8697 32.706C13.2389 35.5161 8.43053 35.5274 5.54114 32.6982C4.09762 31.2848 3.37964 29.6456 3.37964 27.5235C3.37964 25.4014 4.09762 23.7623 5.54114 22.3488L10.2628 17.7255C10.86 17.1408 10.86 16.2496 10.2628 15.6649L10.0891 15.8424L10.2628 15.6649C9.66863 15.0831 8.76766 15.0831 8.17345 15.6649L3.45175 20.2882C1.41533 22.2822 0.394531 24.7801 0.394531 27.5235C0.394531 30.267 1.41533 32.7648 3.45175 34.7588C5.49013 36.7547 8.28814 37.7502 10.8335 37.7502C13.6242 37.7502 16.1789 36.7564 17.9726 34.753L22.6884 30.1355C23.2855 29.5508 23.2855 28.6596 22.6884 28.0749C22.0942 27.4931 21.1932 27.4931 20.599 28.0749L15.8773 32.6982Z" fill="black" stroke="black" stroke-width="0.5"/>
<path d="M28.5531 22.592C28.7329 22.768 28.9818 22.8399 29.1847 22.873C29.3912 22.9067 29.5942 22.9067 29.7175 22.9067H29.722L29.7327 22.9067C29.9832 22.9067 30.3209 22.9068 30.6425 22.592L35.3642 17.9686C39.4405 13.9772 39.4405 7.73274 35.3642 3.74137C31.2908 -0.247124 24.9226 -0.247124 20.8492 3.74137L16.1275 8.3647C15.5304 8.94941 15.5304 9.84058 16.1275 10.4253C16.7218 11.0071 17.6227 11.0071 18.2169 10.4253L22.9386 5.80196C25.8236 2.97712 30.3898 2.97712 33.2748 5.80196C36.1568 8.62392 36.1568 13.0861 33.2748 15.908L28.5531 20.5314C27.9559 21.1161 27.9559 22.0072 28.5531 22.592Z" fill="black" stroke="black" stroke-width="0.5"/>
<path d="M9.6627 28.9188C9.84253 29.0949 10.0914 29.1667 10.2944 29.1998C10.5008 29.2335 10.7038 29.2335 10.8271 29.2335H10.8317C11.1224 29.2335 11.3462 29.162 11.5007 29.0864C11.5776 29.0487 11.6369 29.0103 11.6786 28.9797C11.6994 28.9644 11.716 28.9509 11.7282 28.9405C11.7343 28.9352 11.7394 28.9307 11.7433 28.9271L11.7485 28.9222L11.7505 28.9203L11.7513 28.9195L11.7517 28.9191L11.7519 28.919C11.752 28.9189 11.7521 28.9188 11.5795 28.7425L11.7521 28.9188L28.8993 12.1288C29.4965 11.5441 29.4965 10.6529 28.8993 10.0682C28.3051 9.48638 27.4041 9.48638 26.8099 10.0682L9.6627 26.8582C9.06556 27.4429 9.06556 28.3341 9.6627 28.9188Z" fill="black" stroke="black" stroke-width="0.5"/>
</svg>
