<svg width="407" height="393" viewBox="0 0 407 393" fill="none" xmlns="http://www.w3.org/2000/svg">
<path d="M286.208 297.73C338.824 245.114 338.824 159.807 286.208 107.191C233.592 54.5745 148.284 54.5746 95.6683 107.191C43.0522 159.807 43.0522 245.114 95.6683 297.73C148.284 350.346 233.592 350.346 286.208 297.73Z" fill="#D2EFF4"/>
<path d="M397.43 1.21729L386.535 84.9035L358.78 75.4974L350.778 98.9003L339.07 66.4984L306.078 57.2327L397.43 1.21729Z" fill="#EAAD40"/>
<path d="M352.628 73.4038L386.532 84.9017L358.777 75.4956L350.775 98.8985L339.066 66.4966L376.48 27.1594L352.628 73.4038Z" fill="#E5923E"/>
<path d="M341.944 74.4426L376.48 27.1594L339.066 66.4966L341.944 74.4426Z" fill="#E1763B"/>
<path d="M352.822 108.38C352.668 106.85 352.569 105.306 352.555 103.79L350.211 103.818C350.225 105.404 350.323 107.019 350.492 108.619L352.822 108.38Z" fill="#77CDDD"/>
<path d="M392.665 149.545C395.501 148.535 398 146.85 399.909 144.646L401.692 146.176C399.53 148.689 396.68 150.612 393.466 151.75L392.679 149.531L392.665 149.545ZM374.443 148.787L375.706 146.808C378.514 148.591 381.294 149.742 383.961 150.233L383.526 152.55C380.55 152.002 377.489 150.739 374.443 148.787ZM403.644 136.756C404.135 134.173 404.023 131.505 403.335 129.063C403.279 128.866 403.223 128.67 403.152 128.473L403.012 128.066L405.216 127.266L405.385 127.743C405.455 127.968 405.525 128.192 405.595 128.431C406.381 131.225 406.508 134.257 405.946 137.191L403.644 136.756ZM309.035 163.416L308.572 161.114C311.661 160.482 314.735 159.752 317.683 158.952L318.301 161.212C315.297 162.04 312.18 162.784 309.035 163.416ZM326.598 156.13L327.988 155.624C330.641 154.642 333 153.645 335.232 152.578L336.243 154.698C333.954 155.793 331.526 156.804 328.816 157.814L327.398 158.334L326.612 156.116L326.598 156.13ZM290.195 166.055L289.998 163.711C293.171 163.444 296.302 163.107 299.32 162.686L299.643 165.016C296.583 165.438 293.396 165.789 290.195 166.055ZM343.262 148.015C345.551 146.443 347.614 144.73 349.411 142.933C349.692 142.652 349.973 142.358 350.24 142.077L351.952 143.691C351.658 144 351.363 144.309 351.068 144.604C349.173 146.513 346.983 148.31 344.582 149.967L343.248 148.029L343.262 148.015ZM360.657 135.394L362.566 134.032C364.363 136.545 366.37 138.918 368.56 141.052L366.918 142.723C364.644 140.49 362.538 138.019 360.657 135.394ZM271.228 166.757V164.413C274.457 164.427 277.616 164.385 280.634 164.272L280.719 166.617C277.658 166.729 274.471 166.771 271.228 166.757ZM252.276 166.027L252.43 163.683C255.561 163.893 258.692 164.076 261.822 164.188L261.724 166.533C258.565 166.406 255.406 166.238 252.262 166.013L252.276 166.027ZM356.206 134.875C357.835 132.811 359.758 130.438 361.906 128.333C362.131 128.108 362.355 127.897 362.594 127.673L364.194 129.386L363.549 130.003C361.499 132.011 359.716 134.229 358.059 136.321L356.22 134.861L356.206 134.875ZM389.156 119.685L389.324 117.34C393.227 117.382 396.358 118.084 398.899 119.474L397.775 121.538C395.613 120.358 392.764 119.727 389.17 119.699L389.156 119.685ZM370.498 122.029C373.362 120.485 376.408 119.306 379.553 118.505L380.129 120.78L379.202 121.018C376.577 121.762 374.022 122.787 371.607 124.079L370.498 122.015V122.029ZM352.331 118.098L354.592 117.452C355.434 120.401 356.543 123.307 357.877 126.086L355.757 127.111C354.367 124.219 353.202 121.187 352.331 118.112V118.098Z" fill="#77CDDD"/>
<path d="M242.712 165.262L242.923 162.918C241.365 162.777 239.806 162.623 238.248 162.468L238.023 164.813C239.582 164.967 241.154 165.122 242.712 165.262Z" fill="#77CDDD"/>
<path d="M59.4186 287.501C54.2101 287.501 49.9844 291.727 49.9844 296.935C49.9844 302.144 54.2101 306.369 59.4186 306.369C64.627 306.369 68.8527 302.144 68.8527 296.935C68.8527 291.727 64.627 287.501 59.4186 287.501ZM59.4186 300.74C57.3127 300.74 55.6 299.027 55.6 296.921C55.6 294.815 57.3127 293.103 59.4186 293.103C61.5244 293.103 63.2372 294.815 63.2372 296.921C63.2372 299.027 61.5244 300.74 59.4186 300.74Z" fill="#9ED8E2"/>
<path d="M312.087 312.42C306.878 312.42 302.652 316.646 302.652 321.854C302.652 327.063 306.878 331.289 312.087 331.289C317.295 331.289 321.521 327.063 321.521 321.854C321.521 316.646 317.295 312.42 312.087 312.42ZM312.087 325.673C309.981 325.673 308.268 323.96 308.268 321.854C308.268 319.749 309.981 318.036 312.087 318.036C314.192 318.036 315.905 319.749 315.905 321.854C315.905 323.96 314.192 325.673 312.087 325.673Z" fill="#9ED8E2"/>
<path d="M383.97 189.536C379.983 189.536 376.754 192.765 376.754 196.752C376.754 200.739 379.983 203.968 383.97 203.968C387.957 203.968 391.186 200.739 391.186 196.752C391.186 192.765 387.957 189.536 383.97 189.536ZM383.97 199.672C382.355 199.672 381.05 198.366 381.05 196.752C381.05 195.137 382.355 193.832 383.97 193.832C385.584 193.832 386.89 195.137 386.89 196.752C386.89 198.366 385.584 199.672 383.97 199.672Z" fill="#9ED8E2"/>
<path d="M242.934 29.8708C238.722 29.8708 235.297 33.2823 235.297 37.508C235.297 41.7337 238.708 45.1452 242.934 45.1452C247.16 45.1452 250.571 41.7337 250.571 37.508C250.571 33.2823 247.16 29.8708 242.934 29.8708ZM242.934 40.5966C241.221 40.5966 239.846 39.2067 239.846 37.508C239.846 35.8093 241.235 34.4195 242.934 34.4195C244.633 34.4195 246.023 35.8093 246.023 37.508C246.023 39.2067 244.633 40.5966 242.934 40.5966Z" fill="#9ED8E2"/>
<path d="M17.9561 228.34C13.5198 228.34 9.92578 231.934 9.92578 236.37C9.92578 240.806 13.5198 244.4 17.9561 244.4C22.3924 244.4 25.9863 240.806 25.9863 236.37C25.9863 231.934 22.3924 228.34 17.9561 228.34Z" fill="#9ED8E2"/>
<path d="M339.938 254.901C336.709 254.901 334.098 257.512 334.098 260.741C334.098 263.97 336.709 266.581 339.938 266.581C343.167 266.581 345.778 263.97 345.778 260.741C345.778 257.512 343.167 254.901 339.938 254.901Z" fill="#9ED8E2"/>
<path d="M212.352 9.81055C207.635 9.81055 203.816 13.6291 203.816 18.3462C203.816 23.0633 207.635 26.8819 212.352 26.8819C217.069 26.8819 220.888 23.0633 220.888 18.3462C220.888 13.6291 217.069 9.81055 212.352 9.81055Z" fill="#9ED8E2"/>
<path d="M25.9771 306.206C22.5375 306.206 19.7578 308.986 19.7578 312.425C19.7578 315.865 22.5375 318.645 25.9771 318.645C29.4166 318.645 32.1963 315.865 32.1963 312.425C32.1963 308.986 29.4166 306.206 25.9771 306.206Z" fill="#9ED8E2"/>
<path d="M308.582 76.707C304.552 76.707 301.281 79.9781 301.281 84.0073C301.281 88.0365 304.552 91.3075 308.582 91.3075C312.611 91.3075 315.882 88.0365 315.882 84.0073C315.882 79.9781 312.611 76.707 308.582 76.707Z" fill="#9ED8E2"/>
<path d="M47.4485 150.173C49.7435 150.173 51.604 148.313 51.604 146.018C51.604 143.723 49.7435 141.862 47.4485 141.862C45.1535 141.862 43.293 143.723 43.293 146.018C43.293 148.313 45.1535 150.173 47.4485 150.173Z" fill="#9ED8E2"/>
<path d="M345.769 210.175C341.852 210.175 338.68 213.348 338.68 217.264C338.68 221.181 341.852 224.354 345.769 224.354C349.686 224.354 352.859 221.181 352.859 217.264C352.859 213.348 349.686 210.175 345.769 210.175Z" fill="#9ED8E2"/>
<path d="M13.962 176.114C16.4586 176.114 18.4825 174.09 18.4825 171.594C18.4825 169.097 16.4586 167.073 13.962 167.073C11.4653 167.073 9.44141 169.097 9.44141 171.594C9.44141 174.09 11.4653 176.114 13.962 176.114Z" fill="#9ED8E2"/>
<path d="M181.385 50.0779L184.221 47.242C185.204 46.2593 185.204 44.6448 184.221 43.6621C183.238 42.6794 181.624 42.6794 180.641 43.6621L177.805 46.498L174.969 43.6621C173.987 42.6794 172.372 42.6794 171.389 43.6621C170.407 44.6448 170.407 46.2593 171.389 47.242L174.225 50.0779L171.389 52.9138C170.407 53.8965 170.407 55.511 171.389 56.4937C172.372 57.4764 173.987 57.4764 174.969 56.4937L177.805 53.6578L180.641 56.4937C181.624 57.4764 183.238 57.4764 184.221 56.4937C185.204 55.511 185.204 53.8965 184.221 52.9138L181.385 50.0779Z" fill="#9ED8E2"/>
<path d="M10.7328 123.54L13.5686 120.704C14.5514 119.721 14.5514 118.107 13.5686 117.124C12.5859 116.141 10.9714 116.141 9.98872 117.124L7.15285 119.96L4.31698 117.124C3.33426 116.141 1.71977 116.141 0.737045 117.124C-0.245682 118.107 -0.245682 119.721 0.737045 120.704L3.57291 123.54L0.737045 126.376C-0.245682 127.358 -0.245682 128.973 0.737045 129.956C1.71977 130.938 3.33426 130.938 4.31698 129.956L7.15285 127.12L9.98872 129.956C10.9714 130.938 12.5859 130.938 13.5686 129.956C14.5514 128.973 14.5514 127.358 13.5686 126.376L10.7328 123.54Z" fill="#9ED8E2"/>
<path d="M345.645 296.921L348.046 294.52C348.874 293.692 348.874 292.316 348.046 291.488C347.218 290.66 345.842 290.66 345.014 291.488L342.613 293.889L340.212 291.488C339.384 290.66 338.008 290.66 337.18 291.488C336.352 292.316 336.352 293.692 337.18 294.52L339.58 296.921L337.18 299.322C336.352 300.15 336.352 301.526 337.18 302.354C338.008 303.182 339.384 303.182 340.212 302.354L342.613 299.953L345.014 302.354C345.842 303.182 347.218 303.182 348.046 302.354C348.874 301.526 348.874 300.15 348.046 299.322L345.645 296.921Z" fill="#9ED8E2"/>
<path d="M295.734 254.845L186.455 319.284L77.1758 254.845C77.1758 254.845 77.1758 254.719 77.1898 254.662C77.274 254.255 83.3108 249.215 92.5063 241.747C92.5906 241.676 92.6607 241.606 92.759 241.536C122.929 217.038 186.455 166.863 186.455 166.863C186.455 166.863 249.981 217.038 280.151 241.536C289.487 249.117 295.636 254.241 295.72 254.662C295.734 254.719 295.734 254.789 295.734 254.845Z" fill="#6F4D18"/>
<path d="M231.407 113.485H113.494C103.386 113.485 95.1875 121.684 95.1875 131.792V310.072C95.1875 320.18 103.386 328.379 113.494 328.379H261.24C271.348 328.379 279.547 320.18 279.547 310.072V161.638L231.393 113.485H231.407Z" fill="white"/>
<path d="M231.409 143.319C231.409 153.428 239.607 161.626 249.715 161.626H279.548L231.395 113.473V143.305L231.409 143.319Z" fill="#E5E6E6"/>
<path d="M170.293 143.628H129.622C126.016 143.628 123.094 146.551 123.094 150.157V190.827C123.094 194.433 126.016 197.355 129.622 197.355H170.293C173.898 197.355 176.821 194.433 176.821 190.827V150.157C176.821 146.551 173.898 143.628 170.293 143.628Z" fill="#E1F3F6"/>
<path d="M226.004 212.281H128.391C125.485 212.281 123.141 214.639 123.141 217.531C123.141 220.437 125.499 222.782 128.391 222.782H226.004C228.91 222.782 231.255 220.423 231.255 217.531C231.255 214.625 228.896 212.281 226.004 212.281Z" fill="#D8D9D9"/>
<path d="M226.004 238.464H128.391C125.485 238.464 123.141 240.822 123.141 243.714C123.141 246.621 125.499 248.965 128.391 248.965H226.004C228.91 248.965 231.255 246.606 231.255 243.714C231.255 240.808 228.896 238.464 226.004 238.464Z" fill="#D8D9D9"/>
<path d="M181.692 263.857H128.415C125.509 263.857 123.164 266.215 123.164 269.107C123.164 272.013 125.523 274.358 128.415 274.358H181.692C184.599 274.358 186.943 271.999 186.943 269.107C186.943 266.201 184.584 263.857 181.692 263.857Z" fill="#D8D9D9"/>
<path d="M295.744 254.842V359.684C295.744 367.013 289.75 373.007 282.421 373.007H90.4527C83.1244 373.007 77.1719 367.013 77.1719 359.684V254.842L186.451 319.28L295.73 254.842H295.744Z" fill="#EAAD40"/>
<path d="M292.051 368.829L221.716 298.494L186.464 319.272L151.198 298.48L80.8633 368.815C83.278 371.37 86.6895 372.985 90.4659 372.985H282.435C286.225 372.985 289.623 371.37 292.051 368.815V368.829Z" fill="#E5923E"/>
<path d="M112.494 4.04285C139.618 14.4036 155.622 43.4642 149.978 71.9493C147.171 86.1286 139.702 97.9635 129.594 106.429C125.789 109.616 123.95 114.586 124.568 119.513L126.14 131.839L108.676 121.83C105.826 120.201 102.527 119.569 99.2837 120.033C89.5407 121.437 79.2641 120.468 69.2263 116.649C42.5944 106.527 26.4917 78.3791 31.3211 50.2872C37.8071 12.6066 76.7652 -9.58897 112.494 4.04285Z" fill="#019EBD"/>
<path d="M81.334 89.3249L79.0035 85.2536C79.0035 85.2536 83.1731 79.9609 75.2832 66.9608C70.5942 59.2254 70.7626 53.0202 72.5737 48.4013C75.4657 41.059 83.3275 36.5665 91.1332 37.816C96.0327 38.6021 101.452 41.6065 105.734 49.5806C112.922 62.9878 119.59 62.0753 119.59 62.0753L121.921 66.1466L81.3199 89.3108L81.334 89.3249Z" fill="white"/>
<path d="M111.357 76.543C112.944 80.6845 111.329 85.4718 107.356 87.7461C103.383 90.0204 98.4415 88.9675 95.6758 85.4998L111.357 76.557V76.543Z" fill="white"/>
<path d="M73.2737 37.1044L74.7198 39.6455C76.9379 37.6098 79.6194 36.0796 82.5254 35.2232L81.0654 32.6681C79.8299 30.5061 77.0923 29.762 74.9303 30.9975C72.7964 32.2189 72.0383 34.9565 73.2737 37.1185V37.1044Z" fill="white"/>
<path d="M108.239 2.61014C85.8188 3.15766 65.4623 18.2074 59.257 40.9505C51.676 68.7055 68.0174 97.359 95.7864 104.954C110.415 108.955 125.254 106.26 137.159 98.791C134.843 101.557 132.316 104.126 129.578 106.414C125.774 109.601 123.935 114.571 124.552 119.498L126.125 131.825L108.66 121.815C105.81 120.186 102.511 119.555 99.2681 120.018C89.525 121.422 79.2485 120.453 69.2107 116.634C42.5788 106.512 26.4761 78.3643 31.3055 50.2724C37.5388 14.08 73.7172 -7.80677 108.239 2.5961V2.61014Z" fill="#028FAB"/>
</svg>
