<svg width="269" height="23" viewBox="0 0 269 23" fill="none" xmlns="http://www.w3.org/2000/svg">
<g clip-path="url(#clip0_377_14293)">
<path d="M5.83632 9.35826C7.94243 9.35826 10.1488 9.26078 12.2549 9.1633C13.1576 9.1633 13.9599 9.06582 14.8625 9.06582C18.6736 8.87085 22.4846 8.67589 26.2957 8.48093C30.9091 8.28596 35.4222 7.99352 40.0356 7.79855C46.5545 7.40863 53.0734 7.11618 59.5923 6.72625C61.0967 6.62877 62.601 6.62877 64.1054 6.53129C67.9165 6.33632 71.7275 6.14136 75.5386 6.04388C79.3496 5.84892 83.1607 5.65395 86.9718 5.55647C88.4761 5.45899 89.9805 5.36151 91.4849 5.36151C97.5023 5.16654 103.62 4.97158 109.638 4.77661C113.348 4.67913 117.059 4.58165 120.87 4.38669C122.375 4.38669 123.779 4.2892 125.283 4.2892C131.1 4.19172 137.017 4.09424 142.834 3.99676C148.651 3.89928 154.367 3.80179 160.184 3.70431C161.689 3.70431 163.193 3.70431 164.798 3.70431C168.609 3.70431 172.319 3.70431 176.131 3.70431C182.048 3.70431 187.865 3.70431 193.782 3.60683C195.687 3.60683 197.593 3.60683 199.498 3.60683C203.51 3.60683 207.522 3.60683 211.533 3.60683C211.834 3.60683 212.235 3.60683 212.536 3.60683C203.51 3.70431 194.383 3.80179 185.357 3.99676C181.546 4.09424 177.835 4.09424 174.024 4.19172C172.42 4.19172 170.715 4.19172 169.11 4.2892C163.594 4.38669 158.178 4.58165 152.662 4.67913C146.344 4.8741 140.026 4.97158 133.707 5.16654C132.604 5.16654 131.601 5.26402 130.498 5.26402C127.088 5.45899 123.779 5.55647 120.369 5.75143C113.549 6.04388 106.729 6.33632 99.9093 6.62877C98.9064 6.62877 97.9035 6.72625 96.9006 6.82373C93.591 7.0187 90.1811 7.31114 86.8715 7.50611C80.854 7.89604 74.9368 8.28596 68.9194 8.67589C67.3147 8.77337 65.6098 8.96834 64.0051 9.06582C60.1941 9.35826 56.383 9.65071 52.5719 10.0406C47.758 10.4306 42.8437 10.8205 38.0297 11.2104C31.3102 11.7953 24.4904 12.3802 17.771 12.9651C16.1663 13.0626 14.5616 13.2575 12.8567 13.355C9.94825 13.6475 7.03981 13.9399 4.13137 14.2324C3.8305 14.2324 3.52962 14.4273 3.52962 14.8173C3.52962 15.1097 3.8305 15.4021 4.13137 15.4021C5.23457 15.4021 6.23748 15.4996 7.34068 15.4996C7.1401 15.987 7.03981 16.2795 7.03981 16.5719C7.03981 17.6442 7.94243 18.619 9.14592 18.619C17.4701 18.1316 25.6939 17.5467 34.0181 17.1568C41.2391 16.8644 48.46 16.4744 55.681 16.182C63.604 15.7921 71.6272 15.4021 79.5502 15.1097C82.0575 15.0122 84.5648 14.9147 87.0721 14.7198C87.7741 14.7198 88.4761 14.6223 89.2785 14.6223C102.116 14.3298 114.953 13.9399 127.79 13.6475C134.61 13.4525 141.53 13.2575 148.35 13.1601C150.857 13.0626 153.264 13.0626 155.771 12.9651C168.91 12.7701 182.048 12.5752 195.186 12.3802C200.802 12.2827 206.418 12.1852 212.035 12.0878C216.849 11.9903 221.663 11.9903 226.477 11.7953C230.488 11.6978 234.4 11.5029 238.411 11.4054C240.417 11.3079 242.423 11.3079 244.328 11.2104C248.842 10.918 253.355 10.6255 257.868 10.3331C257.567 10.723 257.567 11.3079 257.667 11.6978C257.767 12.1852 258.068 12.5752 258.57 12.7701C258.971 12.9651 259.573 13.1601 259.974 12.9651C260.977 12.5752 261.98 12.1852 262.882 11.7953C262.882 11.7953 262.882 11.7953 262.782 11.7953C262.882 11.7953 262.882 11.6978 262.983 11.6978C263.083 11.6978 263.183 11.6003 263.183 11.6003H263.083C263.584 11.4054 264.086 11.2104 264.687 10.918C265.189 10.723 265.791 10.4306 266.292 10.2356C266.894 9.94316 267.395 9.65071 267.997 9.35826C268.599 9.06582 269 8.28596 269 7.60359C269 7.21366 268.9 6.92122 268.699 6.53129C268.499 6.14136 267.997 5.65395 267.496 5.55647C266.994 5.45899 266.493 5.36151 265.991 5.36151C265.891 5.36151 265.791 5.36151 265.69 5.36151C265.39 5.36151 264.988 5.36151 264.687 5.45899C263.885 5.55647 263.183 5.65395 262.381 5.65395C261.779 5.65395 261.177 5.75143 260.475 5.75143C258.77 5.84891 257.166 5.9464 255.461 6.14136C255.06 6.14136 254.558 6.23884 254.157 6.23884C254.357 6.04388 254.458 5.84891 254.458 5.65395C254.558 5.45899 254.558 5.26402 254.558 5.06906C254.558 4.97158 254.558 4.77661 254.658 4.67913C254.658 4.48417 254.658 4.2892 254.558 4.19172C254.558 4.19172 254.658 4.19172 254.658 4.09424C254.959 3.89928 255.26 3.70431 255.461 3.31439C255.661 3.02194 255.762 2.63201 255.762 2.24208C255.762 1.85216 255.661 1.55971 255.461 1.16978C255.36 1.0723 255.26 0.877337 255.16 0.779855C254.859 0.48741 254.558 0.389928 254.257 0.292446C253.655 0.0974819 252.953 0 252.251 0C251.65 0 251.148 0 250.546 0C249.744 0 248.942 0 248.139 0C247.036 0 245.833 0 244.73 0C241.721 0 238.712 0 235.703 0C232.895 0 229.987 0 227.179 0C224.571 0 222.064 0 219.456 0C209.126 0 198.897 0.0974819 188.567 0.194964C180.844 0.292446 173.122 0.389928 165.399 0.389928C161.989 0.389928 158.479 0.48741 155.069 0.584892C147.347 0.779855 139.625 0.877337 131.902 1.0723C129.696 1.0723 127.489 1.16978 125.283 1.16978C123.979 1.16978 122.776 1.26726 121.472 1.26726C113.85 1.55971 106.228 1.85216 98.6055 2.1446C96.2988 2.24208 93.9921 2.33957 91.5852 2.43705C90.2814 2.43705 88.9776 2.53453 87.6738 2.63201C80.0517 3.02194 72.5299 3.41187 64.9077 3.8018C60.9964 3.99676 57.085 4.19172 53.1737 4.48417C46.4542 4.8741 39.7347 5.26402 33.1155 5.75143C27.2986 6.14136 21.4817 6.43381 15.6648 6.72625C14.7622 6.82373 13.8596 6.82373 12.8567 6.92122C11.3523 7.0187 9.84796 7.0187 8.34359 7.11618C7.03981 7.50611 5.63574 7.50611 4.33195 7.50611C4.23166 7.11618 3.8305 6.82373 3.52962 6.92122C2.627 6.92122 1.82468 7.0187 0.922057 7.11618C0.520893 7.21366 0.119729 7.40863 0.0194379 7.79855C-0.0808532 8.28596 0.22002 8.77337 0.621184 8.87085C1.02235 8.96834 1.42351 9.06582 1.82468 9.1633C2.22584 9.26078 2.52671 9.26078 2.92788 9.26078C3.93079 9.35826 4.83341 9.35826 5.83632 9.35826ZM240.517 6.23884C241.721 6.23884 243.025 6.23884 244.228 6.23884C244.328 6.53129 244.529 6.72625 244.73 6.92122C244.228 6.92122 243.727 7.0187 243.326 7.0187C242.423 7.0187 241.52 7.11618 240.618 7.11618C236.606 7.21366 232.695 7.40863 228.683 7.50611C226.878 7.60359 225.073 7.70107 223.267 7.70107C220.459 7.70107 217.551 7.79855 214.743 7.79855C208.224 7.89604 201.805 7.99352 195.286 8.091C182.649 8.28596 170.113 8.48093 157.476 8.67589C148.45 8.77337 139.424 9.06582 130.398 9.35826C116.858 9.74819 103.219 10.0406 89.6796 10.4306C86.9718 10.528 84.2639 10.6255 81.5561 10.8205C73.8336 11.2104 66.1112 11.5029 58.3888 11.8928C50.867 12.2827 43.2449 12.5752 35.723 12.9651C35.021 12.9651 34.319 13.0626 33.6169 13.0626C35.6228 12.8676 37.7289 12.7701 39.7347 12.5752C46.8554 12.0878 53.976 11.5029 61.0967 11.0155C63.604 10.8205 66.1112 10.6255 68.5182 10.4306C69.822 10.3331 71.1258 10.2356 72.3293 10.2356C79.8511 9.84567 87.2726 9.35826 94.6942 8.96834C96.0983 8.87085 97.6026 8.77337 99.0067 8.67589C101.113 8.57841 103.219 8.48093 105.225 8.48093C112.847 8.18848 120.469 7.89604 128.091 7.60359C129.796 7.50611 131.501 7.50611 133.106 7.40863C133.507 7.40863 134.008 7.40863 134.409 7.40863C135.613 7.40863 136.816 7.40863 137.92 7.31114C145.542 7.11618 153.264 7.0187 160.886 6.82373C164.396 6.72625 167.907 6.62877 171.417 6.62877C182.75 6.53129 194.183 6.43381 205.516 6.33632C217.35 6.33632 228.984 6.23884 240.517 6.23884Z" fill="#015E70"/>
<path d="M20.8615 23C21.1647 23 21.4105 22.7548 21.4105 22.4524C21.4105 22.15 21.1647 21.9048 20.8615 21.9048C20.5583 21.9048 20.3125 22.15 20.3125 22.4524C20.3125 22.7548 20.5583 23 20.8615 23Z" fill="#015E70"/>
</g>
<defs>
<clipPath id="clip0_377_14293">
<rect width="269" height="23" fill="white"/>
</clipPath>
</defs>
</svg>
