<svg width="22" height="21" viewBox="0 0 22 21" fill="none" xmlns="http://www.w3.org/2000/svg">
<path fill-rule="evenodd" clip-rule="evenodd" d="M4.99431 21V6.83063H0.278768V20.9999H4.99431V21ZM2.63703 4.89676C4.28092 4.89676 5.30494 3.80781 5.30494 2.44812C5.27385 1.05821 4.28092 0 2.66786 0C1.05454 4.2994e-05 0 1.05825 0 2.44817C0 3.80785 1.02345 4.8968 2.60599 4.8968L2.63703 4.89676ZM7.60418 21C7.60418 21 7.66605 8.16009 7.60418 6.83068H12.3205V8.88553H12.2892C12.9093 7.9186 14.0265 6.49794 16.5703 6.49794C19.6738 6.49794 22 8.52309 22 12.8754V21H17.2845V13.4198C17.2845 11.5151 16.6022 10.2154 14.8952 10.2154C13.5927 10.2154 12.8164 11.0916 12.4755 11.9386C12.3508 12.2401 12.3205 12.6635 12.3205 13.087V21H7.60418Z" fill="white"/>
</svg>
