<svg width="56" height="60" viewBox="0 0 56 60" fill="none" xmlns="http://www.w3.org/2000/svg">
<g filter="url(#filter0_d_1_4144)">
<path d="M0 0H47C49.7614 0 52 2.23858 52 5V47C52 49.7614 49.7614 52 47 52H0V0Z" fill="#0A66C2"/>
</g>
<path d="M46 0H47C49.7614 0 52 2.23858 52 5V47C52 49.7614 49.7614 52 47 52H46V0Z" fill="black" fill-opacity="0.3"/>
<path fill-rule="evenodd" clip-rule="evenodd" d="M16.9943 36V21.8306H12.2788V35.9999H16.9943V36ZM14.637 19.8968C16.2809 19.8968 17.3049 18.8078 17.3049 17.4481C17.2739 16.0582 16.2809 15 14.6679 15C13.0545 15 12 16.0583 12 17.4482C12 18.8079 13.0235 19.8968 14.606 19.8968L14.637 19.8968ZM19.6042 36C19.6042 36 19.666 23.1601 19.6042 21.8307H24.3205V23.8855H24.2892C24.9093 22.9186 26.0265 21.4979 28.5703 21.4979C31.6738 21.4979 34 23.5231 34 27.8754V36H29.2845V28.4198C29.2845 26.5151 28.6022 25.2154 26.8952 25.2154C25.5927 25.2154 24.8164 26.0916 24.4755 26.9386C24.3508 27.2401 24.3205 27.6635 24.3205 28.087V36H19.6042Z" fill="white"/>
<defs>
<filter id="filter0_d_1_4144" x="-4" y="0" width="60" height="60" filterUnits="userSpaceOnUse" color-interpolation-filters="sRGB">
<feFlood flood-opacity="0" result="BackgroundImageFix"/>
<feColorMatrix in="SourceAlpha" type="matrix" values="0 0 0 0 0 0 0 0 0 0 0 0 0 0 0 0 0 0 127 0" result="hardAlpha"/>
<feOffset dy="4"/>
<feGaussianBlur stdDeviation="2"/>
<feComposite in2="hardAlpha" operator="out"/>
<feColorMatrix type="matrix" values="0 0 0 0 0 0 0 0 0 0 0 0 0 0 0 0 0 0 0.25 0"/>
<feBlend mode="normal" in2="BackgroundImageFix" result="effect1_dropShadow_1_4144"/>
<feBlend mode="normal" in="SourceGraphic" in2="effect1_dropShadow_1_4144" result="shape"/>
</filter>
</defs>
</svg>
