<svg width="31" height="36" viewBox="0 0 31 36" fill="none" xmlns="http://www.w3.org/2000/svg">
<path d="M10.8891 17.9992C10.8891 20.4539 8.8992 22.4438 6.44455 22.4438C3.9899 22.4438 2 20.4539 2 17.9992C2 15.5446 3.9899 13.5547 6.44455 13.5547C8.8992 13.5547 10.8891 15.5446 10.8891 17.9992Z" stroke="#019EBD" stroke-width="3.5"/>
<path d="M19.7797 8.22192L10.8906 14.4443" stroke="#019EBD" stroke-width="3.5" stroke-linecap="round"/>
<path d="M19.7797 27.7771L10.8906 21.5547" stroke="#019EBD" stroke-width="3.5" stroke-linecap="round"/>
<path d="M28.6664 29.5556C28.6664 32.0103 26.6765 34.0002 24.2219 34.0002C21.7673 34.0002 19.7773 32.0103 19.7773 29.5556C19.7773 27.101 21.7673 25.1111 24.2219 25.1111C26.6765 25.1111 28.6664 27.101 28.6664 29.5556Z" stroke="#019EBD" stroke-width="3.5"/>
<path d="M28.6664 6.44455C28.6664 8.8992 26.6765 10.8891 24.2219 10.8891C21.7673 10.8891 19.7773 8.8992 19.7773 6.44455C19.7773 3.9899 21.7673 2 24.2219 2C26.6765 2 28.6664 3.9899 28.6664 6.44455Z" stroke="#019EBD" stroke-width="3.5"/>
</svg>
