<svg width="30" height="25" viewBox="0 0 30 25" fill="none" xmlns="http://www.w3.org/2000/svg">
<path d="M28 6.5L22.8566 9.46733C19.9891 11.1216 18.5554 11.9489 17.037 12.2732C15.693 12.5601 14.307 12.5601 12.963 12.2732C11.4447 11.9489 10.0109 11.1216 7.14338 9.46733L2 6.5M6.62222 23H23.3778C24.9957 23 25.8047 23 26.4227 22.673C26.9662 22.3855 27.4082 21.9265 27.6851 21.362C28 20.7203 28 19.8802 28 18.2V6.8C28 5.11985 28 4.27976 27.6851 3.63803C27.4082 3.07354 26.9662 2.61459 26.4227 2.32698C25.8047 2 24.9957 2 23.3778 2H6.62222C5.0043 2 4.19532 2 3.57736 2.32698C3.03377 2.61459 2.59183 3.07354 2.31487 3.63803C2 4.27976 2 5.11983 2 6.8V18.2C2 19.8802 2 20.7203 2.31487 21.362C2.59183 21.9265 3.03377 22.3855 3.57736 22.673C4.19532 23 5.00429 23 6.62222 23Z" stroke="#019EBD" stroke-width="3" stroke-linecap="round" stroke-linejoin="round"/>
</svg>
