<?xml version="1.0" encoding="UTF-8"?>
<svg version="1.1" xmlns="http://www.w3.org/2000/svg" width="29" height="34">
<path d="M0 0 C5.01285134 0.15308242 7.74058776 1.26901266 11.38647461 4.6640625 C14.06179335 7.82534737 15.46665046 10.05044609 15.51147461 14.2265625 C15.32584961 15.3609375 15.14022461 16.4953125 14.94897461 17.6640625 C13.62897461 17.6640625 12.30897461 17.6640625 10.94897461 17.6640625 C10.94897461 16.3440625 10.94897461 15.0240625 10.94897461 13.6640625 C9.64959961 13.6846875 8.35022461 13.7053125 7.01147461 13.7265625 C5.65731828 13.74805704 4.30141378 13.73554449 2.94897461 13.6640625 C1.94897461 12.6640625 1.94897461 12.6640625 1.85131836 10.59765625 C1.90014648 7.13085938 1.90014648 7.13085938 1.94897461 3.6640625 C-1.02102539 3.6640625 -3.99102539 3.6640625 -7.05102539 3.6640625 C-7.05102539 12.9040625 -7.05102539 22.1440625 -7.05102539 31.6640625 C-5.40102539 31.6640625 -3.75102539 31.6640625 -2.05102539 31.6640625 C-2.05102539 32.6540625 -2.05102539 33.6440625 -2.05102539 34.6640625 C-4.38397314 34.70647973 -6.71805106 34.70499187 -9.05102539 34.6640625 C-10.72776188 32.98732601 -10.17890356 30.93551174 -10.18997192 28.69750977 C-10.18794769 28.00584717 -10.18592346 27.31418457 -10.18383789 26.6015625 C-10.18479462 25.89507568 -10.18575134 25.18858887 -10.18673706 24.46069336 C-10.18741872 22.96435457 -10.18556544 21.46801283 -10.18139648 19.97167969 C-10.17604796 17.67376093 -10.1813419 15.37603764 -10.18774414 13.078125 C-10.18708336 11.62760373 -10.18580219 10.17708259 -10.18383789 8.7265625 C-10.18586212 8.0348999 -10.18788635 7.3432373 -10.18997192 6.63061523 C-10.15277125 -0.89128897 -6.99225673 0.13316999 0 0 Z M4.94897461 5.6640625 C4.94897461 6.9840625 4.94897461 8.3040625 4.94897461 9.6640625 C6.26897461 9.3340625 7.58897461 9.0040625 8.94897461 8.6640625 C7.62897461 7.6740625 6.30897461 6.6840625 4.94897461 5.6640625 Z " fill="#019EBD" transform="translate(10.051025390625,-0.6640625)"/>
<path d="M0 0 C2.75320739 1.40033824 3.88779875 2.57096856 6 5 C6.0654371 8.27185521 5.76220049 10.04954518 3.703125 12.6171875 C0.56731721 15.16323328 -3.06932815 15.3342408 -7 15 C-9.85878333 13.68681904 -10.88574884 12.49373214 -13 10 C-13.75 7.5 -13.75 7.5 -13 5 C-8.95414312 0.55942537 -6.19337331 -1.10595952 0 0 Z M-6.75 4.25 C-8.21074888 5.92158352 -8.21074888 5.92158352 -7.9375 8.0625 C-6.73944098 10.53848865 -5.51570636 11.02617818 -3 12 C-1.68 10.68 -0.36 9.36 1 8 C-0.28288757 5.44496043 -0.28288757 5.44496043 -2 3 C-4.95156348 2.7093809 -4.95156348 2.7093809 -6.75 4.25 Z " fill="#019FBE" transform="translate(23,19)"/>
<path d="M0 0 C1.65 0 3.3 0 5 0 C4.67 1.65 4.34 3.3 4 5 C2.68 5 1.36 5 0 5 C0 3.35 0 1.7 0 0 Z " fill="#009EBD" transform="translate(17,24)"/>
</svg>
