<svg width="56" height="60" viewBox="0 0 56 60" fill="none" xmlns="http://www.w3.org/2000/svg">
<g filter="url(#filter0_d_1_4123)">
<path d="M0 0H47C49.7614 0 52 2.23858 52 5V47C52 49.7614 49.7614 52 47 52H0V0Z" fill="#303030"/>
</g>
<path d="M46 0H47C49.7614 0 52 2.23858 52 5V47C52 49.7614 49.7614 52 47 52H46V0Z" fill="black" fill-opacity="0.3"/>
<path d="M30.6889 15H34.5222L26.1474 24.3191L36 37H28.2853L22.2432 29.3089L15.3295 37H11.4936L20.4514 27.0323L11 15H18.9101L24.3718 22.0297L30.6889 15ZM29.3434 34.7661H31.4677L17.756 17.1167H15.4767L29.3434 34.7661Z" fill="white"/>
<defs>
<filter id="filter0_d_1_4123" x="-4" y="0" width="60" height="60" filterUnits="userSpaceOnUse" color-interpolation-filters="sRGB">
<feFlood flood-opacity="0" result="BackgroundImageFix"/>
<feColorMatrix in="SourceAlpha" type="matrix" values="0 0 0 0 0 0 0 0 0 0 0 0 0 0 0 0 0 0 127 0" result="hardAlpha"/>
<feOffset dy="4"/>
<feGaussianBlur stdDeviation="2"/>
<feComposite in2="hardAlpha" operator="out"/>
<feColorMatrix type="matrix" values="0 0 0 0 0 0 0 0 0 0 0 0 0 0 0 0 0 0 0.25 0"/>
<feBlend mode="normal" in2="BackgroundImageFix" result="effect1_dropShadow_1_4123"/>
<feBlend mode="normal" in="SourceGraphic" in2="effect1_dropShadow_1_4123" result="shape"/>
</filter>
</defs>
</svg>
